<svg xmlns="http://www.w3.org/2000/svg" viewBox="0 0 53 50" enable-background="new 0 0 53 50"><style type="text/css">.st0{fill:#FFFFFF;}</style><path class="st0" d="M31.8 29.2c1.2.4 2.5.1 3.4-.8 1.3-1.3 1.3-3.5 0-4.8-1.3-1.3-3.5-1.3-4.8 0l-17.7-17.8c1.3-1.4 1.3-3.5 0-4.8s-3.5-1.3-4.8 0c-.9.9-1.2 2.3-.8 3.4-1.2-.4-2.5-.1-3.5.8-1.3 1.3-1.3 3.5 0 4.8 1.2 1.2 3.1 1.3 4.4.3l17.9 17.9c-1 1.3-.9 3.2.3 4.4 1.3 1.3 3.5 1.3 4.8 0 1-.9 1.2-2.2.8-3.4zM36 45.7c-1.3-1-3.2-.9-4.4.3-1.1 1.1-1.3 2.7-.6 4h9.9l12.1-12.1v-9.2l-17 17zM40.5 0h-9.9c.2.3.3.6.6.8.9.9 2.3 1.2 3.4.8-.4 1.2-.1 2.5.8 3.4 1.3 1.3 3.5 1.3 4.8 0 1.3-1.3 1.3-3.5 0-4.8l.3-.2zM10.3 27.6c-.9-.9-2.3-1.2-3.4-.8.3-1.1.1-2.5-.9-3.4-1.3-1.3-3.5-1.3-4.8 0-1.2 1.2-1.3 3.1-.3 4.4l-.9 1v9.2l5.5-5.5c1.3 1.3 3.5 1.3 4.8 0 1.3-1.4 1.3-3.6 0-4.9z"/></svg>